<svg xmlns="http://www.w3.org/2000/svg" viewBox="0 0 420 300" width="420" height="300" fill="none" stroke-linecap="round" stroke-linejoin="round"><circle cx="210" cy="150" r="105" stroke="#0E4A5A" stroke-opacity=".22" stroke-width="2" stroke-dasharray="3 8"/><path d="M210 150L210.0 45.0" stroke="#0E4A5A" stroke-opacity=".4" stroke-width="2.5"/><path d="M210 150L284.2 75.8" stroke="#0E4A5A" stroke-opacity=".4" stroke-width="2.5"/><path d="M210 150L315.0 150.0" stroke="#0E4A5A" stroke-opacity=".4" stroke-width="2.5"/><path d="M210 150L284.2 224.2" stroke="#0E4A5A" stroke-opacity=".4" stroke-width="2.5"/><path d="M210 150L210.0 255.0" stroke="#0E4A5A" stroke-opacity=".4" stroke-width="2.5"/><path d="M210 150L135.8 224.2" stroke="#0E4A5A" stroke-opacity=".4" stroke-width="2.5"/><path d="M210 150L105.0 150.0" stroke="#0E4A5A" stroke-opacity=".4" stroke-width="2.5"/><path d="M210 150L135.8 75.8" stroke="#0E4A5A" stroke-opacity=".4" stroke-width="2.5"/><circle cx="210" cy="150" r="40" fill="#D98A1F"/><path d="M189 164.55L210 136.2L231 164.55M189 164.55L231 164.55" stroke="#FFFFFF" stroke-width="3.4"/><circle cx="189" cy="164.55" r="6.3" fill="#D98A1F" stroke="#FFFFFF" stroke-width="3.4"/><circle cx="231" cy="164.55" r="6.3" fill="#D98A1F" stroke="#FFFFFF" stroke-width="3.4"/><circle cx="210" cy="136.2" r="7.1" fill="#FFFFFF" stroke="#FFFFFF" stroke-width="3.4"/><rect x="184.0" y="19.0" width="52" height="52" rx="11" fill="#FFFFFF" stroke="#0E4A5A" stroke-width="2.5"/><g transform="translate(194.4,29.4) scale(1.3) rotate(0 12 12)" stroke="#0E4A5A" stroke-width="1.7" color="#0E4A5A"><rect x="2" y="5" width="20" height="14" rx="2"/><path d="M2 7l10 7 10-7"/></g><rect x="258.2" y="49.8" width="52" height="52" rx="11" fill="#FFFFFF" stroke="#0E4A5A" stroke-width="2.5"/><g transform="translate(268.6462120245875,60.15378797541252) scale(1.3) rotate(0 12 12)" stroke="#0E4A5A" stroke-width="1.7" color="#0E4A5A"><rect x="3" y="3" width="18" height="18" rx="2"/><path d="M3 9h18M3 15h18M10 3v18"/></g><rect x="289.0" y="124.0" width="52" height="52" rx="11" fill="#FFFFFF" stroke="#0E4A5A" stroke-width="2.5"/><g transform="translate(299.4,134.4) scale(1.3) rotate(0 12 12)" stroke="#0E4A5A" stroke-width="1.7" color="#0E4A5A"><path d="M6 2h9l5 5v14a1 1 0 0 1-1 1H6a1 1 0 0 1-1-1V3a1 1 0 0 1 1-1z"/><path d="M15 2v5h5M9 13h7M9 17h5"/></g><rect x="258.2" y="198.2" width="52" height="52" rx="11" fill="#FFFFFF" stroke="#0E4A5A" stroke-width="2.5"/><g transform="translate(268.6462120245875,208.64621202458747) scale(1.3) rotate(0 12 12)" stroke="#0E4A5A" stroke-width="1.7" color="#0E4A5A"><circle cx="12" cy="12" r="9"/><ellipse cx="12" cy="12" rx="4" ry="9"/><path d="M3 12h18"/></g><rect x="184.0" y="229.0" width="52" height="52" rx="11" fill="#FFFFFF" stroke="#0E4A5A" stroke-width="2.5"/><g transform="translate(194.4,239.4) scale(1.3) rotate(0 12 12)" stroke="#0E4A5A" stroke-width="1.7" color="#0E4A5A"><circle cx="9" cy="8" r="3.5"/><path d="M2.5 20c0-4 3-6 6.5-6s6.5 2 6.5 6"/><circle cx="17.5" cy="9" r="2.5"/><path d="M17 14c3 0 5 1.6 5 5"/></g><rect x="109.8" y="198.2" width="52" height="52" rx="11" fill="#FFFFFF" stroke="#0E4A5A" stroke-width="2.5"/><g transform="translate(120.15378797541254,208.6462120245875) scale(1.3) rotate(0 12 12)" stroke="#0E4A5A" stroke-width="1.7" color="#0E4A5A"><rect x="5" y="2" width="14" height="20" rx="2"/><rect x="8" y="5" width="8" height="4"/><g fill="currentColor" stroke="none"><circle cx="9" cy="13" r=".9"/><circle cx="12" cy="13" r=".9"/><circle cx="15" cy="13" r=".9"/><circle cx="9" cy="17" r=".9"/><circle cx="12" cy="17" r=".9"/><circle cx="15" cy="17" r=".9"/></g></g><rect x="79.0" y="124.0" width="52" height="52" rx="11" fill="#FFFFFF" stroke="#0E4A5A" stroke-width="2.5"/><g transform="translate(89.4,134.4) scale(1.3) rotate(0 12 12)" stroke="#0E4A5A" stroke-width="1.7" color="#0E4A5A"><ellipse cx="12" cy="6" rx="8" ry="3"/><path d="M4 6v12c0 1.7 3.6 3 8 3s8-1.3 8-3V6M4 12c0 1.7 3.6 3 8 3s8-1.3 8-3"/></g><rect x="109.8" y="49.8" width="52" height="52" rx="11" fill="#FFFFFF" stroke="#0E4A5A" stroke-width="2.5"/><g transform="translate(120.15378797541248,60.15378797541252) scale(1.3) rotate(0 12 12)" stroke="#0E4A5A" stroke-width="1.7" color="#0E4A5A"><path d="M7 18a4.5 4.5 0 0 1-.5-9A6 6 0 0 1 18 9.5 4 4 0 0 1 17.5 18z"/></g></svg>
